<svg width="479" height="301" viewBox="0 0 479 301" fill="none" xmlns="http://www.w3.org/2000/svg">
<path opacity="0.67" d="M237.888 300.351C365.833 300.351 469.554 286.628 469.554 269.7C469.554 252.772 365.833 239.049 237.888 239.049C109.942 239.049 6.22168 252.772 6.22168 269.7C6.22168 286.628 109.942 300.351 237.888 300.351Z" fill="#F2B547"/>
<g opacity="0.35">
<path d="M237.888 239.049C112.978 239.049 11.1665 252.126 6.40481 268.501C-5.39723 251.301 1.69689 226.959 21.9044 216.144C27.053 213.389 32.8788 211.425 37.4255 208.024C51.4525 197.549 47.7549 179.175 51.3343 163.905C55.1715 147.538 69.2093 133.008 87.7615 126.18C107.571 118.885 131.842 119.88 148.932 108.886C164.131 99.1086 169.462 82.5715 178.233 68.4576C198.301 36.1316 240.221 14.476 284.215 10.5565C328.199 6.62836 373.289 19.4924 407.384 42.6019C425.614 54.9558 441.318 70.6597 447.96 89.2714C458.042 117.516 446.187 147.445 442.113 176.684C441.554 180.672 441.167 184.812 442.736 188.622C446.38 197.455 458.763 201.29 466.835 207.862C483.259 221.22 479.766 243.309 475.101 261.886L469.533 269.539C468.802 252.695 365.367 239.066 237.877 239.066L237.888 239.049Z" fill="#F2B547"/>
</g>
<path opacity="0.67" d="M423.023 276.655C444.632 276.655 462.149 274.245 462.149 271.273C462.149 268.3 444.632 265.891 423.023 265.891C401.415 265.891 383.898 268.3 383.898 271.273C383.898 274.245 401.415 276.655 423.023 276.655Z" fill="#F2B547"/>
<path d="M76.0991 32.4416L71.1117 20.8444L56.3215 17.2138L71.4987 13.0732L76.3248 0.96582L81.3014 12.563L96.0916 16.1851L80.6028 20.6233L76.0991 32.4416Z" fill="#F2B547"/>
<path d="M368.656 73.1084L363.669 61.5196L348.878 57.8891L364.056 53.7485L368.882 41.6411L373.858 53.2298L388.649 56.8603L373.16 61.2986L368.656 73.1084Z" fill="#F2B547"/>
<path d="M413.639 80.7009L411.092 74.7918L403.557 72.9383L411.296 70.8297L413.747 64.657L416.294 70.5661L423.829 72.4196L415.929 74.6813L413.639 80.7009Z" fill="white"/>
<path d="M70.2192 174.967L67.6825 169.058L60.1477 167.204L67.876 165.096L70.3375 158.923L72.8741 164.832L80.4197 166.686L72.5194 168.939L70.2192 174.967Z" fill="white"/>
<path d="M387.348 95.1804L384.801 89.2713L377.266 87.4178L384.994 85.3092L387.456 79.1365L390.003 85.0456L397.538 86.8991L389.638 89.1608L387.348 95.1804Z" fill="#F2B547"/>
<path d="M116.148 68.6702L113.611 62.761L106.077 60.9075L113.805 58.7989L116.266 52.6262L118.803 58.5354L126.349 60.3804L118.448 62.642L116.148 68.6702Z" fill="#F2B547"/>
<path d="M98.4233 41.301C98.4233 42.2703 97.4237 43.061 96.1984 43.061C94.973 43.061 93.9734 42.2703 93.9734 41.301C93.9734 40.3317 94.973 39.541 96.1984 39.541C97.4237 39.541 98.4233 40.3317 98.4233 41.301Z" fill="#F2B547"/>
<path d="M442.951 124.65C442.951 125.619 441.951 126.41 440.726 126.41C439.501 126.41 438.501 125.619 438.501 124.65C438.501 123.681 439.501 122.89 440.726 122.89C441.951 122.89 442.951 123.681 442.951 124.65Z" fill="#F2B547"/>
<path d="M439.028 147.938C439.028 148.907 438.028 149.698 436.803 149.698C435.577 149.698 434.578 148.907 434.578 147.938C434.578 146.968 435.577 146.178 436.803 146.178C438.028 146.178 439.028 146.968 439.028 147.938Z" fill="#F2B547"/>
<path d="M413.51 143.899C413.51 144.868 412.511 145.659 411.285 145.659C410.06 145.659 409.06 144.868 409.06 143.899C409.06 142.93 410.06 142.139 411.285 142.139C412.511 142.139 413.51 142.93 413.51 143.899Z" fill="#F2B547"/>
<path d="M62.1365 107.484C62.1365 108.453 61.1368 109.244 59.9115 109.244C58.6861 109.244 57.6865 108.453 57.6865 107.484C57.6865 106.514 58.6861 105.724 59.9115 105.724C61.1368 105.724 62.1365 106.514 62.1365 107.484Z" fill="#F2B547"/>
<path d="M48.8188 94.6025C48.8188 95.5718 47.8192 96.3625 46.5939 96.3625C45.3685 96.3625 44.3689 95.5718 44.3689 94.6025C44.3689 93.6332 45.3685 92.8425 46.5939 92.8425C47.8192 92.8425 48.8188 93.6332 48.8188 94.6025Z" fill="#F2B547"/>
<path d="M355.435 29.2617C355.435 30.231 354.435 31.0217 353.21 31.0217C351.985 31.0217 350.985 30.231 350.985 29.2617C350.985 28.2924 351.985 27.5017 353.21 27.5017C354.435 27.5017 355.435 28.2924 355.435 29.2617Z" fill="#F2B547"/>
<g opacity="0.48">
<path d="M119.599 171.013C108.259 158.021 97.736 144.545 88.7716 130.431C81.57 119.106 75.4002 107.356 70.7031 95.2315C71.0578 86.8651 71.4125 78.4988 71.7672 70.1325C72.1864 60.1847 72.0359 49.0211 63.1683 41.9726C60.997 40.2467 57.9336 38.8013 54.967 39.4559C51.4952 40.2211 49.9366 43.3755 49.238 46.1728C44.917 63.4921 54.4511 81.007 67.2635 95.6566C68.7361 99.4827 70.3484 103.275 72.1111 107.024C79.0118 121.742 87.9547 135.83 98.0692 149.324C103.798 156.959 109.914 164.415 116.288 171.719C116.869 172.382 119.9 171.362 119.599 171.022V171.013Z" fill="#27219A"/>
</g>
<g opacity="0.48">
<path d="M109.119 164.381C103.702 153.541 98.9724 142.462 95.5006 131.128C92.7059 122.039 90.7496 112.763 89.9328 103.428C91.9535 97.4591 93.9742 91.4904 95.995 85.5132C98.392 78.4138 100.638 70.362 95.7478 64.1213C94.5547 62.5908 92.6522 61.1539 90.3842 61.2305C87.7293 61.324 85.945 63.3901 84.8486 65.3031C78.0877 77.1894 81.2586 91.0398 87.3746 103.266C87.6218 106.208 87.9872 109.15 88.4602 112.075C90.3197 123.57 93.7808 134.878 98.22 145.923C100.724 152.172 103.551 158.336 106.604 164.432C106.883 164.985 109.27 164.653 109.13 164.364L109.119 164.381Z" fill="#27219A"/>
</g>
<g opacity="0.48">
<path d="M150.329 166.124C136.173 162.885 122.211 159.067 108.743 154.314C97.9403 150.497 87.4711 146.058 77.6361 140.864C72.8959 135.949 68.1665 131.035 63.4263 126.12C57.794 120.279 51.1191 113.945 41.886 113.197C39.6288 113.01 37.0169 113.316 35.7055 114.787C34.1685 116.504 35.1466 118.885 36.3934 120.747C44.1432 132.251 59.9438 138.738 75.9163 142.385C79.0119 144.026 82.172 145.599 85.3966 147.096C98.0371 152.962 111.462 157.715 125.22 161.694C133.002 163.947 140.903 165.945 148.857 167.774C149.577 167.935 150.706 166.235 150.329 166.15V166.124Z" fill="#27219A"/>
</g>
<g opacity="0.48">
<path d="M336.475 190.526C349.685 181.632 362.347 172.203 373.891 161.949C383.156 153.728 391.68 144.962 399.064 135.618L405.309 114.362C407.781 105.936 411.081 96.5917 420.54 92.2555C422.851 91.1927 425.839 90.5295 428.139 91.6008C430.837 92.8592 431.246 95.784 431.042 98.2582C429.752 113.562 416.767 126.571 401.848 136.587C399.526 139.537 397.097 142.428 394.55 145.268C384.575 156.397 373.063 166.626 360.735 176.157C353.759 181.547 346.503 186.717 339.076 191.716C338.399 192.167 336.152 190.772 336.496 190.543L336.475 190.526Z" fill="#27219A"/>
</g>
<g opacity="0.48">
<path d="M347.159 186.827C354.791 178.691 361.906 170.239 368.044 161.337C372.967 154.204 377.255 146.773 380.598 139.078C380.598 133.705 380.598 128.34 380.598 122.966C380.598 116.581 381.007 109.422 386.886 105.06C388.326 103.989 390.326 103.122 392.217 103.589C394.421 104.142 395.335 106.191 395.7 107.993C398 119.174 391.401 130.236 382.78 139.41C381.737 141.833 380.587 144.239 379.362 146.611C374.536 155.93 368.409 164.806 361.551 173.283C357.671 178.078 353.544 182.755 349.255 187.329C348.868 187.746 346.955 187.04 347.148 186.819L347.159 186.827Z" fill="#27219A"/>
</g>
<g opacity="0.48">
<path d="M312.065 180.961C324.866 180.757 337.679 180.042 350.33 178.444C360.477 177.16 370.537 175.298 380.265 172.688C385.639 169.406 391.014 166.124 396.388 162.842C402.773 158.94 410.179 154.816 418.143 155.828C420.089 156.074 422.196 156.797 422.873 158.259C423.668 159.977 422.174 161.796 420.605 163.14C410.823 171.413 395.722 174.048 381.275 174.269C378.212 175.103 375.106 175.851 371.978 176.531C359.703 179.209 347.073 180.808 334.4 181.7C327.231 182.202 320.029 182.483 312.828 182.593C312.172 182.602 311.71 180.969 312.054 180.969L312.065 180.961Z" fill="#27219A"/>
</g>
<path d="M84.1925 245.103L60.8787 251.131C60.8787 251.131 242.886 292.844 251.399 295.53C259.901 298.226 392.583 261.895 392.583 261.895L355.156 252.474L84.1925 245.094" fill="#F2B547"/>
<path d="M154.349 281.714L40.9722 260.628C37.7046 260.024 34.4155 261.64 33.6416 264.216C32.8785 266.801 34.9207 269.402 38.1776 270.015L151.555 291.1L154.349 281.714Z" fill="#2B3448"/>
<g style="mix-blend-mode:overlay" opacity="0.2">
<path d="M33.5881 266.197C34.0181 268.017 35.7594 269.573 38.1778 270.023L151.555 291.109L152.393 288.295L33.5881 266.206V266.197Z" fill="white"/>
</g>
<path d="M51.4777 262.511L48.6118 272.153L51.7613 272.739L54.6271 263.096L51.4777 262.511Z" fill="#ECB751"/>
<path d="M102.997 272.083L100.131 281.726L103.281 282.312L106.146 272.669L102.997 272.083Z" fill="#ECB751"/>
<path d="M48.3836 264.562L48.0146 265.804L84.1971 272.533L84.566 271.291L48.3836 264.562Z" fill="#ECB751"/>
<path d="M151.555 291.1L162.486 289.715L163.41 286.603L154.349 281.714L151.555 291.1Z" fill="#ECB751"/>
<path d="M379.975 259.769L370.774 256.368C358.972 251.276 366.485 220.727 366.485 220.727L260.965 244.882L82.1936 209.699C76.2926 227.375 81.1187 250.663 81.1187 250.663L246.38 286.356L246.326 286.501L260.804 289.468C384.178 261.036 379.964 259.769 379.964 259.769H379.975Z" fill="#DE6C6B"/>
<path d="M263.298 245.494L381.845 217.487L203.223 187.363L82.1934 209.69L263.298 245.494Z" fill="#DE6C6B"/>
<path opacity="0.37" d="M84.7299 249.422C83.8485 246.599 83.311 243.717 82.9456 240.826C82.5694 237.935 82.4511 235.019 82.5264 232.102C82.6339 229.186 82.9886 226.278 83.6335 223.413C84.3214 220.548 85.3425 217.733 86.8044 215.064C86.3637 216.475 85.7617 217.844 85.4715 219.272C85.0308 220.675 84.7943 222.104 84.5041 223.524C84.0634 226.38 83.741 229.246 83.6657 232.128C83.569 235.01 83.655 237.893 83.8162 240.775C83.9022 242.22 84.0312 243.657 84.1924 245.094C84.3107 246.539 84.5256 247.976 84.7299 249.413V249.422Z" fill="#2B3448"/>
<path opacity="0.37" d="M251.647 284.903C250.765 282.08 250.228 279.197 249.862 276.307C249.486 273.416 249.368 270.499 249.443 267.583C249.551 264.667 249.905 261.759 250.55 258.894C251.238 256.028 252.259 253.214 253.721 250.544C253.28 251.956 252.678 253.325 252.388 254.753C251.948 256.156 251.711 257.584 251.421 259.004C250.98 261.861 250.658 264.726 250.582 267.609C250.486 270.491 250.572 273.373 250.733 276.256C250.819 277.701 250.948 279.138 251.109 280.575C251.227 282.02 251.442 283.457 251.647 284.894V284.903Z" fill="#2B3448"/>
<path opacity="0.37" d="M92.1252 214.324C105.024 216.841 117.89 219.451 130.745 222.07L169.29 230.045L207.77 238.224L226.989 242.39L246.175 246.641L226.849 242.815L207.555 238.896L169.01 230.912L130.53 222.733C117.718 219.969 104.905 217.189 92.1252 214.315V214.324Z" fill="#2B3448"/>
<g opacity="0.41">
<path d="M125.317 257.703L89.8894 249.498L91.9102 217.436L126.757 224.723L125.306 257.695L125.317 257.703ZM91.0933 249.201L124.113 256.836L125.532 225.046L93.028 218.235L91.0933 249.201Z" fill="white"/>
<path d="M108.259 237.842L91.7598 225.998L109.13 221.517L126.027 233.369L108.248 237.842H108.259ZM93.3936 226.346L108.302 237.034L124.328 232.995L109.097 222.299L93.4043 226.346H93.3936Z" fill="white"/>
<path d="M107.216 246.336L90.6628 234.305L108.097 229.858L125.059 241.898L107.216 246.327V246.336ZM92.3074 234.67L107.259 245.528L123.35 241.532L108.065 230.666L92.3074 234.679V234.67Z" fill="white"/>
<path d="M106.841 253.35L90.2339 241.166L107.733 236.753L124.748 248.954L106.841 253.35ZM91.8784 241.54L106.884 252.534L123.028 248.572L107.69 237.561L91.8784 241.54Z" fill="white"/>
</g>
<g opacity="0.41">
<path d="M164.388 266.631L128.961 258.426L130.981 226.364L165.829 233.65L164.378 266.622L164.388 266.631ZM130.165 258.128L163.184 265.763L164.603 233.973L132.099 227.163L130.165 258.128Z" fill="white"/>
<path d="M147.341 246.769L130.842 234.925L148.212 230.445L165.109 242.297L147.33 246.769H147.341ZM132.476 235.274L147.384 245.961L163.41 241.923L148.179 231.227L132.486 235.274H132.476Z" fill="white"/>
<path d="M146.299 255.263L129.746 243.232L147.18 238.785L164.142 250.825L146.299 255.254V255.263ZM131.39 243.598L146.342 254.455L162.433 250.459L147.148 239.593L131.39 243.606V243.598Z" fill="white"/>
<path d="M145.922 262.277L129.315 250.093L146.814 245.681L163.829 257.882L145.922 262.277ZM130.96 250.468L145.965 261.461L162.11 257.499L146.771 246.488L130.96 250.468Z" fill="white"/>
</g>
<g opacity="0.41">
<path d="M204.578 275.567L169.15 267.362L171.171 235.3L206.018 242.586L204.567 275.558L204.578 275.567ZM170.354 267.064L203.374 274.7L204.792 242.909L172.289 236.099L170.354 267.064Z" fill="white"/>
<path d="M187.53 255.697L171.031 243.853L188.401 239.372L205.298 251.225L187.52 255.697H187.53ZM172.665 244.202L187.573 254.889L203.6 250.851L188.369 240.155L172.676 244.202H172.665Z" fill="white"/>
<path d="M186.487 264.19L169.934 252.16L187.369 247.713L204.33 259.752L186.487 264.182V264.19ZM171.579 252.525L186.53 263.383L202.621 259.387L187.336 248.521L171.579 252.534V252.525Z" fill="white"/>
<path d="M186.111 271.205L169.505 259.021L187.003 254.608L204.019 266.809L186.111 271.205ZM171.149 259.395L186.154 270.389L202.299 266.427L186.96 255.416L171.149 259.395Z" fill="white"/>
</g>
<g opacity="0.41">
<path d="M244.81 284.035L209.382 275.83L211.403 243.768L246.25 251.054L244.799 284.027L244.81 284.035ZM210.586 275.533L243.606 283.168L245.025 251.377L212.521 244.567L210.586 275.533Z" fill="white"/>
<path d="M227.763 264.174L211.263 252.33L228.633 247.849L245.53 259.701L227.752 264.174H227.763ZM212.897 252.678L227.806 263.366L243.832 259.327L228.601 248.631L212.908 252.678H212.897Z" fill="white"/>
<path d="M226.72 272.668L210.167 260.637L227.602 256.19L244.563 268.229L226.72 272.659V272.668ZM211.812 261.002L226.763 271.86L242.854 267.864L227.569 256.998L211.812 261.011V261.002Z" fill="white"/>
<path d="M226.344 279.682L209.737 267.498L227.236 263.085L244.251 275.286L226.344 279.682ZM211.381 267.872L226.386 278.866L242.531 274.903L227.193 263.893L211.381 267.872Z" fill="white"/>
</g>
<mask id="mask0_15_7" style="mask-type:luminance" maskUnits="userSpaceOnUse" x="256" y="225" width="119" height="63">
<path d="M264.287 244.014C264.287 244.014 250.26 266.265 259.88 287.223L374.966 257.788C374.966 257.788 365.26 243.462 374.321 225.785L264.276 244.006L264.287 244.014Z" fill="white"/>
</mask>
<g mask="url(#mask0_15_7)">
<path d="M264.287 244.015C264.287 244.015 250.26 266.265 259.88 287.224L374.966 257.788C374.966 257.788 367.464 237.714 376.535 220.046L264.287 244.006V244.015Z" fill="white"/>
<path opacity="0.1" d="M352.093 260.195C336.217 264.998 320.374 268.816 303.337 269.819C286.462 270.814 269.199 267.507 258.827 256.581C256.301 264.888 254.839 276.239 259.88 287.232L374.966 257.797C374.966 257.797 374.397 256.258 373.752 253.656C366.475 255.705 359.295 258.009 352.093 260.186V260.195Z" fill="#74471B"/>
<g opacity="0.22">
<path d="M378.493 230.396L253.602 252.243L253.787 252.908L378.679 231.06L378.493 230.396Z" fill="#74471B"/>
<path d="M378.435 235.844L254.013 259.309L254.212 259.971L378.634 236.506L378.435 235.844Z" fill="#74471B"/>
<path d="M377.436 243.109L253.014 266.574L253.214 267.236L377.635 243.771L377.436 243.109Z" fill="#74471B"/>
<path d="M376.642 247.954L252.707 272.979L252.919 273.639L376.854 248.613L376.642 247.954Z" fill="#74471B"/>
<path d="M377.021 253.295L254.19 281.523L254.43 282.176L377.261 253.949L377.021 253.295Z" fill="#74471B"/>
</g>
</g>
<path opacity="0.11" d="M257.365 248.147L81.6349 211.944C81.6349 211.944 78.808 221.33 80.5063 226.695L256.236 263.791L261.32 248.597L257.365 248.147Z" fill="white"/>
<path opacity="0.1" d="M81.1185 250.655L260.815 289.459C260.815 289.459 256.795 276.298 256.795 274.963L80.5059 239.653C80.5059 239.653 79.474 248.248 81.1185 250.655Z" fill="#2B3448"/>
<path d="M114.192 174.967C114.192 174.967 110.978 190.662 113.655 200.848C113.655 200.848 225.226 248.793 233.266 250.493C241.317 252.194 395.259 228.855 395.259 228.855L374.88 225.037L373.912 196.333L392.583 193.647L262.771 152.487L114.192 174.975V174.967Z" fill="#ECB751"/>
<path d="M380.243 195.33L235.416 213.576C235.416 213.576 227.01 234.645 235.416 246.25L384.317 226.295C384.317 226.295 380.781 211.459 380.243 195.338V195.33Z" fill="white"/>
<path opacity="0.1" d="M307.012 233.318C281.968 234.067 254.58 233.378 232.46 224.468C231.234 231.371 230.998 240.129 235.426 246.242L384.328 226.287C384.328 226.287 384.274 226.057 384.177 225.632C358.703 229.637 332.949 232.536 307.012 233.31V233.318Z" fill="#74471B"/>
<g opacity="0.35">
<path d="M126.047 180.587L119.695 178.614L116.546 188.987L119.405 201.239L125.575 203.781L129.068 193.519L126.047 180.587Z" stroke="#2B3448" stroke-miterlimit="10"/>
<path d="M124.124 186.547L121.329 185.594L119.889 190.194L121.179 195.729L123.941 196.792L125.457 192.209L124.124 186.547Z" fill="#2B3448"/>
<path d="M129.111 205.244L116.417 200.006L116.621 177.449L129.691 181.505L129.111 205.244Z" stroke="#2B3448" stroke-miterlimit="10"/>
<path d="M165.162 192.745L156.531 190.058L151.748 201.732L155.08 215.94L163.399 219.375L168.72 207.879L165.162 192.745Z" stroke="#2B3448" stroke-miterlimit="10"/>
<path d="M162.239 199.479L158.434 198.187L156.241 203.365L157.757 209.792L161.497 211.229L163.787 206.094L162.239 199.479Z" fill="#2B3448"/>
<path d="M168.215 221.356L151.06 214.29L152.382 188.528L170.182 194.046L168.215 221.356Z" stroke="#2B3448" stroke-miterlimit="10"/>
<path d="M220.271 209.869L207.824 206L200.268 219.306L204.256 236.209L216.101 241.09L224.581 228.106L220.271 209.869Z" stroke="#2B3448" stroke-miterlimit="10"/>
<path d="M215.574 217.589L210.114 215.736L206.653 221.619L208.458 229.297L213.8 231.346L217.455 225.53L215.574 217.589Z" fill="#2B3448"/>
<path d="M223.012 243.938L198.591 233.88L201.912 203.875L227.591 211.833L223.012 243.938Z" stroke="#2B3448" stroke-miterlimit="10"/>
<path d="M140.86 210.184L138.076 209.036L138.946 184.37L141.827 185.263L140.86 210.184Z" fill="#2B3448"/>
<path d="M183.381 227.724L179.727 226.219L182.199 197.77L186.015 198.952L183.381 227.724Z" fill="#2B3448"/>
</g>
<path opacity="0.11" d="M114.192 174.967L235.416 213.576C235.416 213.576 231.525 225.267 231.815 228.013L112.849 184.277C112.849 184.277 113.494 175.953 114.181 174.958L114.192 174.967Z" fill="white"/>
<path opacity="0.26" d="M113.655 200.848L233.266 250.493C233.266 250.493 228.343 244.729 228.633 234.424L112.849 192.524C112.849 192.524 112.999 199.785 113.644 200.848H113.655Z" fill="#DC903C"/>
<mask id="mask1_15_7" style="mask-type:luminance" maskUnits="userSpaceOnUse" x="231" y="195" width="154" height="52">
<path d="M380.243 195.33L235.416 213.576C235.416 213.576 227.01 234.645 235.416 246.25L384.317 226.295C384.317 226.295 380.781 211.459 380.243 195.338V195.33Z" fill="white"/>
</mask>
<g mask="url(#mask1_15_7)">
<g opacity="0.44">
<path d="M384.023 198.959L229.05 219.297L229.143 219.742L384.116 199.404L384.023 198.959Z" fill="#74471B"/>
</g>
<g opacity="0.44">
<path d="M384.534 204.061L229.561 224.399L229.654 224.844L384.627 204.506L384.534 204.061Z" fill="#74471B"/>
</g>
<g opacity="0.44">
<path d="M383.946 209.698L228.972 230.036L229.066 230.481L384.039 210.143L383.946 209.698Z" fill="#74471B"/>
</g>
<g opacity="0.44">
<path d="M384.241 215.323L229.272 235.683L229.365 236.127L384.334 215.768L384.241 215.323Z" fill="#74471B"/>
</g>
<g opacity="0.44">
<path d="M384.545 221.483L229.576 241.843L229.669 242.287L384.638 221.928L384.545 221.483Z" fill="#74471B"/>
</g>
</g>
<path d="M95.4249 129.148C95.4249 129.148 83.6229 147.819 94.8875 169.032L253.656 208.067L373.805 181.99L363.669 179.983L361.411 144.35L372.73 141.876L222.539 106.234L95.4141 129.148H95.4249Z" fill="#5CA28B"/>
<path d="M363.39 143.908L250.969 162.664C250.969 162.664 233.804 188.12 255.795 203.824L364.68 180.06L363.379 143.908H363.39Z" fill="white"/>
<path opacity="0.1" d="M316.612 151.976C320.707 151.976 324.802 151.857 328.886 151.602C330.725 151.483 332.552 151.33 334.379 151.169C334.702 151.135 334.949 151.118 335.121 151.101C335.54 151.05 335.948 150.999 336.368 150.948C343.268 150.012 350.094 148.873 356.876 147.462C359.08 147.003 361.272 146.518 363.465 146.025L363.39 143.908L315.085 151.968C315.59 151.968 316.096 151.985 316.601 151.985L316.612 151.976Z" fill="#74471B"/>
<path opacity="0.1" d="M314.376 183.588C298.285 183.469 282.194 182.134 266.146 181.259C258.988 180.867 251.829 180.289 244.875 179.141C243.832 187.125 245.584 196.529 255.817 203.832L364.701 180.068L364.637 178.274C348.266 181.505 331.649 183.716 314.376 183.588Z" fill="#74471B"/>
<path opacity="0.38" d="M97.0053 167.093C95.3392 164.305 94.3611 161.286 93.6947 158.243C93.0283 155.199 92.7703 152.095 92.8348 149C92.8563 148.227 92.9423 147.453 92.9853 146.688L93.0712 145.531L93.2432 144.384L93.6087 142.088L94.1569 139.809C94.4793 138.287 95.0705 136.808 95.5327 135.312C96.0916 133.841 96.758 132.387 97.4137 130.941C96.5001 133.934 95.5757 136.902 95.0275 139.928L94.6083 142.19L94.3288 144.469L94.1784 145.608L94.1031 146.747C94.0601 147.504 93.9956 148.269 93.9741 149.026C93.8774 152.07 94.1031 155.114 94.5546 158.14C94.7588 159.654 95.1135 161.159 95.5112 162.655C95.8982 164.152 96.3818 165.631 97.0053 167.093Z" fill="#2B3448"/>
<path opacity="0.38" d="M241.737 201.979C240.071 199.19 239.093 196.172 238.426 193.128C237.76 190.084 237.502 186.981 237.566 183.886C237.588 183.112 237.674 182.339 237.717 181.573L237.803 180.417L237.975 179.269L238.34 176.974L238.888 174.695C239.211 173.173 239.802 171.694 240.264 170.197C240.834 168.726 241.489 167.272 242.145 165.827C241.232 168.82 240.307 171.787 239.759 174.814L239.34 177.076L239.06 179.354L238.91 180.493L238.835 181.633C238.792 182.39 238.716 183.155 238.706 183.911C238.609 186.955 238.835 189.999 239.286 193.026C239.49 194.539 239.845 196.044 240.243 197.541C240.63 199.037 241.113 200.517 241.737 201.979Z" fill="#2B3448"/>
<g opacity="0.23">
<path d="M110.269 158.523L132.745 161.524L113.096 149.341L102.348 150.471L110.269 158.523Z" fill="#2B3448"/>
<path d="M113.376 148.771L134.679 161.933L121.007 141.841L109.646 138.058L113.376 148.771Z" fill="#2B3448"/>
<path d="M110.184 159.458L134.185 162.341L112.946 168.658L102.821 164.985L110.184 159.458Z" fill="#2B3448"/>
</g>
<path opacity="0.23" d="M144.697 143.61C144.697 143.61 134.819 161.967 141.257 179.643L166.184 186.445C166.184 186.445 160.594 156.874 171.773 150.072L144.697 143.61Z" fill="#2B3448"/>
<path opacity="0.23" d="M200.128 156.865C200.128 156.865 189.82 176.922 196.688 193.578L204.427 195.959C204.427 195.959 202.278 168.088 210.017 158.906L200.139 156.865H200.128Z" fill="#2B3448"/>
<mask id="mask2_15_7" style="mask-type:luminance" maskUnits="userSpaceOnUse" x="244" y="143" width="121" height="61">
<path d="M363.39 143.908L250.969 162.664C250.969 162.664 233.804 188.12 255.795 203.824L364.68 180.06L363.379 143.908H363.39Z" fill="white"/>
</mask>
<g mask="url(#mask2_15_7)">
<g opacity="0.27">
<path d="M374.92 144.174L245.844 166.249L245.965 166.689L375.04 144.614L374.92 144.174Z" fill="#74471B"/>
<path d="M372.765 149.111L243.897 171.933L244.022 172.373L372.89 149.55L372.765 149.111Z" fill="#74471B"/>
<path d="M371.204 153.586L242.822 178.06L242.955 178.498L371.338 154.024L371.204 153.586Z" fill="#74471B"/>
<path d="M370.641 158.553L242.258 183.027L242.392 183.465L370.774 158.991L370.641 158.553Z" fill="#74471B"/>
<path d="M370.804 163.511L242.422 187.986L242.555 188.424L370.938 163.95L370.804 163.511Z" fill="#74471B"/>
<path d="M371.695 168.157L243.312 192.631L243.446 193.069L371.828 168.595L371.695 168.157Z" fill="#74471B"/>
<path d="M249.11 201.851L248.97 201.418L376.901 175.511L377.041 175.945L249.11 201.851Z" fill="#74471B"/>
<path d="M374.424 172.174L246.042 196.649L246.175 197.087L374.558 172.612L374.424 172.174Z" fill="#74471B"/>
</g>
</g>
<path opacity="0.11" d="M95.4251 129.147L250.98 162.664C250.98 162.664 244.821 174.542 243.961 180.323L90.126 142.93C90.126 142.93 92.5659 131.324 95.4251 129.139V129.147Z" fill="white"/>
<path opacity="0.1" d="M93.5548 168.769L253.656 208.066C253.656 208.066 244.713 205.312 241.8 192.898L90.1152 156.525C90.1152 156.525 92.265 166.719 93.5548 168.76V168.769Z" fill="#2B3448"/>
<path d="M107.754 87.5625C107.754 87.5625 104.002 113.019 107.216 119.812L226.827 158.421L371.118 138.483L356.639 135.941L354.941 108.504L367.614 107.39L223.614 73.9927L107.754 87.571V87.5625Z" fill="#2B3448"/>
<path d="M358.79 108.351L230.59 121.504C230.59 121.504 215.574 143.993 234.341 153.328L359.854 137.208C359.854 137.208 358.779 107.084 358.779 108.359L358.79 108.351Z" fill="white"/>
<path opacity="0.1" d="M308.399 142.479C292.674 142.428 276.723 141.349 261.051 140.277C251.721 139.64 242.09 138.789 233.631 135.363C230.89 134.258 228.429 132.855 226.086 131.324C223.914 138.568 223.732 148.048 234.341 153.32L319.986 142.318C316.117 142.428 312.247 142.488 308.388 142.471L308.399 142.479Z" fill="#74471B"/>
<g opacity="0.54">
<path d="M117.46 107.177C117.438 107.458 116.998 107.543 116.46 107.381C115.923 107.22 115.504 106.863 115.525 106.591C115.536 106.318 115.987 106.225 116.514 106.386C117.052 106.548 117.471 106.905 117.449 107.186L117.46 107.177Z" fill="#ECB751"/>
<path d="M132.884 103.827C132.863 104.117 132.379 104.219 131.809 104.049C131.24 103.887 130.788 103.513 130.81 103.232C130.831 102.943 131.304 102.841 131.885 103.011C132.465 103.173 132.917 103.547 132.895 103.836L132.884 103.827Z" fill="#ECB751"/>
<path d="M131.787 119.625C131.766 119.905 131.293 119.99 130.723 119.803C130.153 119.616 129.713 119.242 129.734 118.962C129.756 118.681 130.229 118.596 130.798 118.783C131.368 118.962 131.809 119.344 131.787 119.625Z" fill="#ECB751"/>
<path d="M148.158 116.641C148.137 116.938 147.621 117.023 147.008 116.836C146.395 116.649 145.922 116.258 145.944 115.969C145.965 115.671 146.481 115.586 147.094 115.773C147.707 115.96 148.18 116.351 148.158 116.641Z" fill="#ECB751"/>
<path d="M112.344 92.7063L111.645 105.468L111.495 105.511L111.634 105.647L110.968 117.763L152.135 131.511L154.425 104.287L112.344 92.7063ZM133.454 99.5847L141.408 107.789L132.057 110.731L132.39 105.944L131.176 105.587L130.853 110.23L123.211 102.756L133.454 99.5762V99.5847ZM122.501 102.067L114.021 93.7691L132.605 98.9045L122.501 102.067ZM134.368 99.3977L152.307 104.355L142.257 107.517L134.368 99.3892V99.3977ZM132.573 111.531L142.128 108.546L151.448 118.171L141.548 120.713L132.906 112.253L143.429 115.467L143.472 114.846L132.584 111.531H132.573ZM130.445 110.884L119.588 107.577L119.556 108.164L130.036 111.369L121.33 114.115L112.924 105.953L122.415 103.011L130.445 110.884ZM130.724 112.109L130.359 117.499L131.562 117.882L131.949 112.347L140.699 120.926L130.928 123.425L122.061 114.812L130.724 112.1V112.109ZM129.982 123.51L112.677 117.754L121.297 115.059L129.982 123.51ZM141.441 121.674L150.168 130.227L131.81 124.123L141.451 121.674H141.441ZM142.3 121.453L151.813 119.038L150.91 129.879L142.3 121.453ZM142.988 108.274L152.974 105.154L151.942 117.499L142.988 108.274ZM113.397 94.1602L121.717 102.314L112.785 105.103L113.397 94.1517V94.1602ZM120.577 114.353L112.118 117.015L112.699 106.684L120.577 114.353Z" fill="#ECB751"/>
</g>
<g opacity="0.54">
<path d="M179.061 124.905C179.039 125.185 178.598 125.27 178.061 125.109C177.524 124.947 177.104 124.59 177.126 124.318C177.137 124.046 177.588 123.952 178.115 124.114C178.652 124.275 179.071 124.632 179.05 124.913L179.061 124.905Z" fill="#ECB751"/>
<path d="M194.495 121.546C194.474 121.835 193.99 121.937 193.42 121.767C192.851 121.606 192.399 121.232 192.421 120.951C192.442 120.662 192.915 120.56 193.496 120.73C194.076 120.892 194.527 121.266 194.506 121.555L194.495 121.546Z" fill="#ECB751"/>
<path d="M193.399 137.344C193.378 137.624 192.905 137.709 192.335 137.522C191.765 137.335 191.325 136.961 191.346 136.68C191.368 136.4 191.841 136.315 192.41 136.502C192.98 136.68 193.421 137.063 193.399 137.344Z" fill="#ECB751"/>
<path d="M209.758 134.368C209.737 134.665 209.221 134.75 208.608 134.563C207.996 134.376 207.523 133.985 207.544 133.696C207.566 133.399 208.082 133.314 208.694 133.501C209.307 133.688 209.78 134.079 209.758 134.368Z" fill="#ECB751"/>
<path d="M173.955 110.434L173.256 123.196L173.106 123.238L173.245 123.374L172.579 135.49L213.746 149.238L216.036 122.014L173.955 110.434ZM195.065 117.312L203.019 125.517L193.668 128.459L194.001 123.672L192.786 123.315L192.464 127.957L184.822 120.483L195.065 117.304V117.312ZM184.112 119.795L175.631 111.496L194.216 116.632L184.112 119.795ZM195.979 117.125L213.918 122.082L203.868 125.245L195.979 117.116V117.125ZM194.184 129.258L203.739 126.274L213.058 135.898L203.159 138.44L194.517 129.981L205.04 133.194L205.083 132.574L194.194 129.258H194.184ZM192.055 128.612L181.199 125.304L181.167 125.891L191.647 129.096L182.941 131.843L174.535 123.68L184.026 120.738L192.055 128.612ZM192.335 129.836L191.969 135.227L193.173 135.609L193.56 130.074L202.31 138.653L192.539 141.153L183.671 132.54L192.335 129.827V129.836ZM191.593 141.238L174.288 135.482L182.908 132.786L191.593 141.238ZM203.051 139.401L211.779 147.955L193.421 141.85L203.062 139.401H203.051ZM203.911 139.18L213.424 136.765L212.521 147.606L203.911 139.18ZM204.599 126.001L214.585 122.881L213.553 135.227L204.599 126.001ZM175.008 111.888L183.328 120.041L174.395 122.83L175.008 111.879V111.888ZM182.188 132.081L173.729 134.742L174.309 124.411L182.188 132.081Z" fill="#ECB751"/>
</g>
<mask id="mask3_15_7" style="mask-type:luminance" maskUnits="userSpaceOnUse" x="224" y="108" width="136" height="46">
<path d="M358.79 108.351L230.59 121.504C230.59 121.504 215.574 143.993 234.341 153.328L359.854 137.208C359.854 137.208 358.779 107.084 358.779 108.359L358.79 108.351Z" fill="white"/>
</mask>
<g mask="url(#mask3_15_7)">
<g opacity="0.31">
<path d="M368.204 119.112L222.879 134.511L222.955 134.958L368.279 119.558L368.204 119.112Z" fill="#74471B"/>
</g>
<g opacity="0.31">
<path d="M368.207 126.309L222.883 141.708L222.958 142.155L368.283 126.755L368.207 126.309Z" fill="#74471B"/>
</g>
<g opacity="0.31">
<path d="M223.066 149.927L222.99 149.485L368.108 132.889L368.184 133.339L223.066 149.927Z" fill="#74471B"/>
</g>
<g opacity="0.31">
<path d="M368.35 112.835L222.737 126.427L222.804 126.874L368.416 113.282L368.35 112.835Z" fill="#74471B"/>
</g>
</g>
<path d="M258.042 123.204C258.042 123.204 274.39 142.369 270.757 166.32L278.625 161.048L284.677 165.835C284.677 165.835 285.279 133.263 274.38 122.244L258.031 123.204H258.042Z" fill="#ECB751"/>
<path opacity="0.11" d="M107.754 87.5625C107.754 87.5625 227.763 117.941 227.763 119.378C227.763 120.815 219.895 130.874 221.712 140.456L106.647 104.525L107.765 87.5625H107.754Z" fill="white"/>
<path d="M354.909 85.7258H136.592V113.308H354.909V85.7258Z" fill="#DC903C"/>
<path opacity="0.11" d="M354.909 107.398H136.592V113.308H354.909V107.398Z" fill="#2B3448"/>
<path opacity="0.11" d="M354.909 85.7258H136.592V95.9032H354.909V85.7258Z" fill="white"/>
<path opacity="0.26" d="M167.613 85.7258H148.427V113.308H167.613V85.7258Z" fill="#74471B"/>
<path opacity="0.26" d="M184.575 85.7258H181.318V113.308H184.575V85.7258Z" fill="#74471B"/>
<path opacity="0.26" d="M307.507 85.7258H198.279V113.308H307.507V85.7258Z" fill="#74471B"/>
<path opacity="0.26" d="M334.766 85.7258H321.212V113.308H334.766V85.7258Z" fill="#74471B"/>
<path d="M136.593 85.7259L134.98 64.0874L335.593 62.812L354.909 85.7259H136.593Z" fill="#DC903C"/>
<path d="M146.782 49.2422V73.848L285.171 85.7258L337.743 72.5727L330.767 70.4556L331.305 50.509L336.668 48.817L207.394 39.4814L146.782 49.2422Z" fill="#DE6C6B"/>
<path d="M333.981 49.5483L284.645 60.2698V80.633V83.1837L333.293 70.9828L333.981 49.5483Z" fill="white"/>
<path d="M152.144 53.7791L152.015 54.6746L274.339 65.699L274.468 64.8035L152.144 53.7791Z" fill="#ECB751"/>
<path d="M151.534 59.5364L151.405 60.4319L273.728 71.4563L273.857 70.5608L151.534 59.5364Z" fill="#ECB751"/>
<path d="M151.53 65.2801L151.401 66.1755L273.725 77.2L273.854 76.3045L151.53 65.2801Z" fill="#ECB751"/>
<path d="M151.541 70.5533L151.412 71.4487L273.736 82.4732L273.865 81.5777L151.541 70.5533Z" fill="#ECB751"/>
<mask id="mask4_15_7" style="mask-type:luminance" maskUnits="userSpaceOnUse" x="284" y="49" width="50" height="35">
<path d="M333.981 49.5483L284.645 60.2698V80.633V83.1837L333.293 70.9828L333.981 49.5483Z" fill="white"/>
</mask>
<g mask="url(#mask4_15_7)">
<g opacity="0.37">
<path d="M281.828 63.8409L281.689 63.4073L340.839 50.8323L340.978 51.2744L281.828 63.8409Z" fill="#74471B"/>
</g>
<g opacity="0.37">
<path d="M282.441 69.597L282.29 69.1549L341.44 56.5884L341.591 57.022L282.441 69.597Z" fill="#74471B"/>
</g>
<g opacity="0.37">
<path d="M282.538 74.6812L282.387 74.2476L341.537 61.6726L341.688 62.1062L282.538 74.6812Z" fill="#74471B"/>
</g>
<g opacity="0.37">
<path d="M283.139 79.953L282.989 79.5108L342.139 66.9443L342.289 67.378L283.139 79.953Z" fill="#74471B"/>
</g>
</g>
<path opacity="0.1" d="M146.782 73.8481L285.171 85.7259L284.688 75.7866L147.223 64.7676L146.782 73.8481Z" fill="#2B3448"/>
<path opacity="0.11" d="M146.782 49.2422L284.645 60.2698L284.688 66.2044L147.223 56.6222L146.782 49.2422Z" fill="white"/>
<path opacity="0.1" d="M284.645 60.2698V83.1837L328.295 71.952C328.295 71.952 285.204 82.1209 284.645 60.2698Z" fill="#74471B"/>
<path d="M126.854 22.6809C126.854 22.6809 120.523 32.9008 126.059 42.6955L240.983 59.9978L338.248 47.6949L330.864 46.6491L332.186 26.6345L337.99 25.5888L223.592 10.5906C223.592 10.5906 130.809 18.5148 126.854 22.6809Z" fill="#27219A"/>
<mask id="mask5_15_7" style="mask-type:luminance" maskUnits="userSpaceOnUse" x="241" y="26" width="93" height="33">
<path d="M246.422 38.7334C246.422 38.7334 237.726 48.3241 244.573 58.1273L332.089 46.6576L333.411 26.6431L246.422 38.7334Z" fill="white"/>
</mask>
<g mask="url(#mask5_15_7)">
<path d="M246.422 38.7334C246.422 38.7334 237.727 48.3241 244.574 58.1273L332.089 46.6576L333.411 26.6431L246.422 38.7334Z" fill="white"/>
<path opacity="0.1" d="M291.008 52.0057C281.066 51.8612 270.306 51.6401 260.654 49.5825C254.366 48.2477 249.035 45.6034 243.757 42.8062C241.93 46.5132 240.489 52.2778 244.574 58.1189L291.266 51.9972C291.18 51.9972 291.094 51.9972 291.008 51.9972V52.0057Z" fill="#74471B"/>
<g opacity="0.4">
<path d="M341.568 29.0557L236.807 42.5071L236.898 42.9519L341.659 29.5005L341.568 29.0557Z" fill="#74471B"/>
</g>
<g opacity="0.4">
<path d="M341.57 33.849L236.809 47.3003L236.9 47.7451L341.661 34.2938L341.57 33.849Z" fill="#74471B"/>
</g>
<g opacity="0.4">
<path d="M341.573 38.6417L236.812 52.093L236.903 52.5378L341.664 39.0865L341.573 38.6417Z" fill="#74471B"/>
</g>
<g opacity="0.4">
<path d="M341.575 42.4693L236.814 55.9207L236.905 56.3655L341.666 42.9141L341.575 42.4693Z" fill="#74471B"/>
</g>
</g>
<path d="M244.433 21.9836C250.001 22.7233 250.743 23.8116 246.078 24.4068C241.413 25.002 233.104 24.8829 227.526 24.1432C221.936 23.4035 221.206 22.3152 225.881 21.7116C230.557 21.1164 238.866 21.2354 244.444 21.9751L244.433 21.9836Z" fill="#ECB751"/>
<path d="M220.657 21.5245C218.26 21.6095 215.498 21.5755 212.907 21.448C211.607 21.38 210.327 21.2864 209.296 21.1504C206.576 20.8018 206.114 20.2917 204.942 19.841C202.535 18.9143 196.204 18.0895 189.12 17.775C195.15 17.6814 201.879 17.6219 207.608 18.1065C213.799 18.6422 216.551 19.62 219.485 20.4872C220.592 20.8188 221.807 21.1419 222.893 21.465L220.668 21.516L220.657 21.5245Z" fill="#ECB751"/>
<path d="M249.549 24.8406C251.936 24.7555 254.687 24.781 257.267 24.9171C258.557 24.9851 259.836 25.0786 260.857 25.2147C263.555 25.5633 264.028 26.0649 265.189 26.5155C267.575 27.4338 273.863 28.2585 280.893 28.5646C274.906 28.6581 268.241 28.7261 262.545 28.2415C256.386 27.7144 253.645 26.7366 250.721 25.8693C249.614 25.5463 248.41 25.2232 247.324 24.8916L249.549 24.8406Z" fill="#ECB751"/>
<path d="M231.965 20.8784C229.471 20.6998 227.289 20.4277 225.827 20.1046C225.096 19.9431 224.538 19.7731 224.387 19.5945C224 19.1439 226.386 18.8123 227.87 18.4467C230.912 17.6985 230.073 16.6357 225.774 15.7939C231.374 16.3126 237.447 16.9078 239.607 17.724C241.94 18.6082 238.887 19.4245 236.619 20.1897C235.759 20.4788 235.017 20.7763 234.136 21.0654L231.965 20.8869V20.8784Z" fill="#ECB751"/>
<path d="M238.263 25.4867C240.746 25.6652 242.939 25.9373 244.39 26.2604C245.121 26.4219 245.68 26.592 245.82 26.7705C246.207 27.2211 243.831 27.5527 242.348 27.9183C239.306 28.6665 240.144 29.7293 244.433 30.5711C238.833 30.0609 232.771 29.4658 230.61 28.6495C228.278 27.7653 231.331 26.9491 233.598 26.1838C234.458 25.8948 235.2 25.5972 236.081 25.3081L238.253 25.4867H238.263Z" fill="#ECB751"/>
<path d="M243.445 21.4055C242.058 21.0824 241.413 20.7168 241.649 20.3852C241.768 20.2152 242.112 20.0537 242.81 19.9346C244.659 19.603 248.421 19.586 251.538 19.467C257.923 19.2289 262.319 18.4637 262.513 17.554C265.082 18.3617 267.694 19.2544 265.684 19.9686C263.512 20.7423 256.805 21.0229 251.033 21.3375C248.851 21.4565 246.734 21.5926 244.541 21.7031L243.445 21.4055Z" fill="#ECB751"/>
<path d="M226.773 24.9594C228.171 25.2825 228.805 25.6481 228.568 25.9796C228.45 26.1497 228.106 26.3112 227.407 26.4303C225.559 26.7619 221.786 26.7789 218.658 26.8979C212.252 27.136 207.834 27.9097 207.641 28.8194C205.061 28.0117 202.438 27.119 204.448 26.3963C206.63 25.6225 213.37 25.3335 219.163 25.0189C221.345 24.8998 223.473 24.7638 225.666 24.6448L226.763 24.9424L226.773 24.9594Z" fill="#ECB751"/>
<path d="M252.194 23.0888C252.935 22.7828 254.515 22.5277 256.633 22.3831C257.686 22.3066 258.901 22.2556 260.201 22.2641C263.619 22.2811 266.79 22.6382 270.004 22.8933C276.593 23.4034 284.59 23.4459 289.997 22.9953C287.439 23.667 284.407 24.3897 278.646 24.5597C272.401 24.7468 265.318 24.2282 258.783 23.8115C256.321 23.6585 253.817 23.514 251.355 23.3609L252.194 23.0973V23.0888Z" fill="#ECB751"/>
<path d="M218.002 23.2758C217.261 23.5819 215.67 23.837 213.552 23.9815C212.488 24.0581 211.274 24.1091 209.962 24.1006C206.533 24.0921 203.33 23.7265 200.106 23.4714C193.474 22.9613 185.391 22.9187 179.93 23.3694C182.51 22.6892 185.573 21.9665 191.389 21.7964C197.676 21.6094 204.814 22.1365 211.381 22.5446C213.853 22.6977 216.368 22.8422 218.841 23.0038L217.991 23.2673L218.002 23.2758Z" fill="#ECB751"/>
<path d="M140.644 24.6533C140.644 24.6533 132.905 36.6587 141.214 45.0505L150.952 46.4109C150.952 46.4109 145.793 32.1354 153.241 26.0137L140.633 24.6533H140.644Z" fill="#ECB751"/>
<path d="M209.114 35.1624C209.114 35.1624 201.375 47.1677 209.683 55.5595L219.422 56.9199C219.422 56.9199 214.262 42.6444 221.711 36.5227L209.103 35.1624H209.114Z" fill="#ECB751"/>
<path opacity="0.11" d="M126.854 22.6809L246.422 38.7334C246.422 38.7334 241.704 44.464 241.274 48.9447L123.629 32.059C123.629 32.059 124.414 24.3304 126.854 22.6809Z" fill="white"/>
<g opacity="0.4">
<path d="M134.01 22.6421L133.811 23.5295L239.786 38.3861L239.985 37.4987L134.01 22.6421Z" fill="#2B3448"/>
</g>
<path opacity="0.18" d="M240.456 56.7073C240.177 55.8911 239.94 55.0748 239.747 54.2586L124.059 38.9543L126.058 42.7039L240.983 60.0062C240.273 58.9434 240.252 57.7276 240.445 56.7073H240.456Z" fill="#2B3448"/>
<path opacity="0.11" d="M142.365 19.3055C142.365 19.3055 186.746 13.2433 223.592 10.5906L291.373 19.3055H142.365Z" fill="white"/>
</svg>
