<svg width="49" height="49" viewBox="0 0 49 49" fill="none" xmlns="http://www.w3.org/2000/svg">
<g clip-path="url(#clip0_57_248)">
<path d="M24.5356 0.194824C11.2809 0.194824 0.535645 10.9401 0.535645 24.1948C0.535645 35.4499 8.28476 44.8943 18.7382 47.4883V31.5292H13.7894V24.1948H18.7382V21.0345C18.7382 12.8659 22.4352 9.07962 30.455 9.07962C31.9756 9.07962 34.5993 9.37818 35.6726 9.67578V16.3238C35.1062 16.2643 34.1222 16.2345 32.9001 16.2345C28.9651 16.2345 27.4444 17.7254 27.4444 21.6009V24.1948H35.2838L33.9369 31.5292H27.4444V48.0191C39.3283 46.5839 48.5366 36.4655 48.5366 24.1948C48.5356 10.9401 37.7904 0.194824 24.5356 0.194824Z" fill="white"/>
</g>
<defs>
<clipPath id="clip0_57_248">
<rect width="48" height="48" fill="white" transform="translate(0.535645 0.194824)"/>
</clipPath>
</defs>
</svg>
